<?xml version="1.0" standalone="no"?>
<!DOCTYPE svg PUBLIC "-//W3C//DTD SVG 20010904//EN"
 "http://www.w3.org/TR/2001/REC-SVG-20010904/DTD/svg10.dtd">
<svg version="1.0" xmlns="http://www.w3.org/2000/svg"
 width="512.000000pt" height="512.000000pt" viewBox="0 0 512.000000 512.000000"
 preserveAspectRatio="xMidYMid meet">

<g transform="translate(0.000000,512.000000) scale(0.100000,-0.100000)"
fill="#000000" stroke="none">
<path d="M1212 4943 c-18 -9 -45 -32 -60 -51 l-27 -35 -3 -886 -2 -886 -88
-17 c-136 -27 -257 -91 -358 -193 -68 -67 -90 -98 -127 -176 -74 -153 -75
-161 -78 -849 -3 -553 -2 -611 15 -670 71 -263 278 -456 545 -507 l91 -18 0
-180 c0 -168 2 -184 22 -225 17 -33 35 -51 68 -67 l44 -23 1789 0 c1992 0
1829 -6 1885 68 l27 35 3 1636 c1 900 0 1650 -3 1666 -4 24 -149 175 -675 700
-368 368 -679 675 -692 682 -18 10 -263 12 -1183 12 -1054 1 -1163 -1 -1193
-16z m2148 -879 c0 -641 -2 -618 68 -672 l35 -27 589 -3 588 -2 0 -1440 0
-1440 -1600 0 -1600 0 0 86 0 87 1003 -4 c948 -4 1006 -3 1067 14 236 67 409
232 490 467 21 62 23 89 32 510 11 567 7 834 -16 915 -56 200 -196 364 -384
452 -137 64 -109 62 -1199 70 l-993 6 0 779 0 778 960 0 960 0 0 -576z m690
-19 l365 -365 -368 0 -367 0 0 365 c0 201 1 365 3 365 1 0 166 -164 367 -365z
m-593 -1316 c74 -23 134 -67 185 -133 71 -94 70 -87 68 -730 -1 -620 -1 -629
-55 -722 -50 -86 -160 -158 -262 -172 -32 -4 -561 -4 -1176 0 -1233 8 -1176 4
-1273 71 -58 40 -112 108 -139 174 -16 41 -19 80 -22 278 -2 127 0 401 4 610
8 379 9 380 34 435 45 96 106 154 208 197 l56 24 1155 -6 c1102 -7 1157 -8
1217 -26z"/>
<path d="M1180 1840 l0 -400 75 0 75 0 2 303 3 302 76 -300 75 -300 79 0 79 0
77 305 77 305 1 -307 1 -308 75 0 75 0 0 400 0 400 -119 0 c-105 0 -120 -2
-125 -17 -3 -10 -35 -130 -71 -267 -56 -216 -75 -279 -75 -253 0 3 -27 108
-61 234 -33 125 -64 245 -70 266 l-10 37 -119 0 -120 0 0 -400z"/>
<path d="M2110 1841 l0 -401 80 0 80 0 0 150 0 150 93 0 c190 1 268 27 322
108 54 82 53 219 -4 297 -16 22 -51 51 -77 65 -47 24 -57 25 -271 29 l-223 3
0 -401z m416 225 c46 -46 48 -101 5 -148 l-29 -33 -116 -3 -116 -4 0 111 0
111 111 0 111 0 34 -34z"/>
<path d="M2973 1987 l-173 -252 0 -67 0 -68 165 0 165 0 0 -80 0 -80 69 0 69
0 7 80 7 80 44 0 44 0 0 65 0 65 -45 0 -45 0 0 255 0 255 -67 0 -68 0 -172
-253z m153 -244 c-4 -9 -30 -13 -92 -13 -71 0 -85 2 -81 15 4 8 43 69 89 137
l83 123 3 -124 c1 -69 0 -131 -2 -138z"/>
</g>
</svg>
